HIERARCHY
ROOT daito
{
  OFFSET 0 0 0
  CHANNELS 6 Xposition Yposition Zposition Zrotation Xrotation Yrotation
  JOINT Solving
  {
    OFFSET 0 0 0
    CHANNELS 6 Xposition Yposition Zposition Zrotation Xrotation Yrotation
    JOINT Hips
    {
      OFFSET 9.05285 -0.517049 87.4093
      CHANNELS 6 Xposition Yposition Zposition Zrotation Xrotation Yrotation
      JOINT Spine
      {
        OFFSET 0 10.116 -1.83739
        CHANNELS 6 Xposition Yposition Zposition Zrotation Xrotation Yrotation
        JOINT Spine1
        {
          OFFSET 0 11.0615 0
          CHANNELS 6 Xposition Yposition Zposition Zrotation Xrotation Yrotation
          JOINT Spine2
          {
            OFFSET 0 11.0615 0
            CHANNELS 6 Xposition Yposition Zposition Zrotation Xrotation Yrotation
            JOINT Spine3
            {
              OFFSET 0 11.0615 0
              CHANNELS 6 Xposition Yposition Zposition Zrotation Xrotation Yrotation
              JOINT Neck
              {
                OFFSET 0 14.2219 1.42219
                CHANNELS 6 Xposition Yposition Zposition Zrotation Xrotation Yrotation
                JOINT Neck1
                {
                  OFFSET 0 4.28402 0
                  CHANNELS 6 Xposition Yposition Zposition Zrotation Xrotation Yrotation
                  JOINT Head
                  {
                    OFFSET 0 4.28402 0
                    CHANNELS 6 Xposition Yposition Zposition Zrotation Xrotation Yrotation
                    End Site
                    {
                      OFFSET 0 9.71257 0
                    }
                  }
                }
              }
              JOINT RightShoulder
              {
                OFFSET 0 10.1585 5.19711
                CHANNELS 6 Xposition Yposition Zposition Zrotation Xrotation Yrotation
                JOINT RightArm
                {
                  OFFSET 0 18.2966 0
                  CHANNELS 6 Xposition Yposition Zposition Zrotation Xrotation Yrotation
                  JOINT RightForeArm
                  {
                    OFFSET 0 27.7295 0
                    CHANNELS 6 Xposition Yposition Zposition Zrotation Xrotation Yrotation
                    JOINT RightHand
                    {
                      OFFSET 0 23.9679 0
                      CHANNELS 6 Xposition Yposition Zposition Zrotation Xrotation Yrotation
                      JOINT RightHandEnd
                      {
                        OFFSET 0 9.71257 0
                        CHANNELS 6 Xposition Yposition Zposition Zrotation Xrotation Yrotation
                        End Site
                        {
                          OFFSET 0 0 0
                        }
                      }
                      JOINT RightThumb
                      {
                        OFFSET 0 0 0
                        CHANNELS 6 Xposition Yposition Zposition Zrotation Xrotation Yrotation
                        End Site
                        {
                          OFFSET 0 0 6.47505
                        }
                      }
                    }
                  }
                }
              }
              JOINT LeftShoulder
              {
                OFFSET 0 10.1585 5.19711
                CHANNELS 6 Xposition Yposition Zposition Zrotation Xrotation Yrotation
                JOINT LeftArm
                {
                  OFFSET 0 18.2966 0
                  CHANNELS 6 Xposition Yposition Zposition Zrotation Xrotation Yrotation
                  JOINT LeftForeArm
                  {
                    OFFSET 0 27.7295 0
                    CHANNELS 6 Xposition Yposition Zposition Zrotation Xrotation Yrotation
                    JOINT LeftHand
                    {
                      OFFSET 0 23.9679 0
                      CHANNELS 6 Xposition Yposition Zposition Zrotation Xrotation Yrotation
                      JOINT LeftHandEnd
                      {
                        OFFSET 0 9.71257 0
                        CHANNELS 6 Xposition Yposition Zposition Zrotation Xrotation Yrotation
                        End Site
                        {
                          OFFSET 0 0 0
                        }
                      }
                      JOINT LeftThumb
                      {
                        OFFSET 0 0 0
                        CHANNELS 6 Xposition Yposition Zposition Zrotation Xrotation Yrotation
                        End Site
                        {
                          OFFSET 0 0 6.47505
                        }
                      }
                    }
                  }
                }
              }
            }
          }
        }
      }
      JOINT RightUpLeg
      {
        OFFSET -9.60676 0 0
        CHANNELS 6 Xposition Yposition Zposition Zrotation Xrotation Yrotation
        JOINT RightLeg
        {
          OFFSET 0 -39.6157 0
          CHANNELS 6 Xposition Yposition Zposition Zrotation Xrotation Yrotation
          JOINT RightFoot
          {
            OFFSET 0 -40.2599 0
            CHANNELS 6 Xposition Yposition Zposition Zrotation Xrotation Yrotation
            JOINT RightForeFoot
            {
              OFFSET 0 -3.87518 0
              CHANNELS 6 Xposition Yposition Zposition Zrotation Xrotation Yrotation
              JOINT RightToeBase
              {
                OFFSET 0 0 15.1765
                CHANNELS 6 Xposition Yposition Zposition Zrotation Xrotation Yrotation
                End Site
                {
                  OFFSET 0 0 8.37649
                }
              }
            }
          }
        }
      }
      JOINT LeftUpLeg
      {
        OFFSET 9.60676 0 0
        CHANNELS 6 Xposition Yposition Zposition Zrotation Xrotation Yrotation
        JOINT LeftLeg
        {
          OFFSET 0 -39.6157 0
          CHANNELS 6 Xposition Yposition Zposition Zrotation Xrotation Yrotation
          JOINT LeftFoot
          {
            OFFSET 0 -40.2599 0
            CHANNELS 6 Xposition Yposition Zposition Zrotation Xrotation Yrotation
            JOINT LeftForeFoot
            {
              OFFSET 0 -3.87518 0
              CHANNELS 6 Xposition Yposition Zposition Zrotation Xrotation Yrotation
              JOINT LeftToeBase
              {
                OFFSET 0 0 15.1765
                CHANNELS 6 Xposition Yposition Zposition Zrotation Xrotation Yrotation
                End Site
                {
                  OFFSET 0 0 8.45728
                }
              }
            }
          }
        }
      }
    }
  }
}
MOTION
Frames:	7
Frame Time:	0.0166667
0 0 0 90 -3.50835e-15 90 0 0 0 -0 -1.31542e-47 -0 14.3119 5.36274 82.7579 -159.508 80.6517 85.3864 -1.77636e-15 10.116 -1.83739 -0.280017 21.5353 -0.557922 0 11.0615 0 0.339128 7.2309 -0.13919 0 11.0615 -7.10543e-15 2.90586 4.50242 -2.53732 1.77636e-15 11.0615 0 8.25614 2.08493 -0.723836 7.77156e-16 14.2219 1.42219 13.6694 -2.3205 -4.32786 3.55271e-15 4.28402 1.42109e-14 -0.42777 -13.5389 2.84422 0 4.28402 0 -0.458849 -18.236 0.205863 4.44089e-16 10.1585 5.19711 105.793 -14.6313 4.08652 1.42109e-14 18.2966 1.42109e-14 41.7483 0.309282 28.0871 0 27.7295 0 180 80.8567 154.901 -1.42109e-14 23.9679 3.55271e-15 -10.3137 -46.2301 1.14944e-15 0 9.71257 7.10543e-15 1.19271e-15 3.18055e-15 -1.59028e-15 0 0 0 1.19271e-15 3.18055e-15 -1.59028e-15 4.44089e-16 10.1585 5.19711 -93.2645 -3.79328 -0.216206 0 18.2966 0 -33.1054 6.24446 -28.6649 0 27.7295 1.33227e-15 5.0315e-10 48.415 0.070598 -1.42109e-14 23.9679 0 26.7915 -32.183 7.51592e-15 1.42109e-14 9.71257 0 1.19271e-15 0 -0 0 0 0 1.19271e-15 0 -0 -9.60676 0 1.77636e-15 7.76847 -13.7766 -4.88616 -1.77636e-15 -39.6157 -8.88178e-16 1.53489e-15 35.5712 -1.95511e-15 0 -40.2599 -3.55271e-15 -5.44946 -19.6466 -21.643 3.55271e-15 -3.87518 -1.77636e-15 1.83255e-16 2.23633e-16 -3.18055e-15 0 -4.44089e-16 15.1765 2.95444e-17 11.402 -3.24459e-15 9.60676 0 1.77636e-15 10.2101 -25.5993 -16.4238 1.77636e-15 -39.6157 -3.55271e-15 -1.54838e-15 47.6331 8.84961e-16 0 -40.2599 0 -11.5015 -20.6781 -0.736655 0 -3.87518 0 7.45443e-17 -1.98785e-16 -1.59028e-15 1.77636e-15 0 15.1765 9.5575e-17 0.757668 -1.59042e-15 
0 0 0 90 -3.50835e-15 90 0 0 0 -0 -1.31542e-47 -0 14.4413 4.32501 83.2824 -160.448 81.8672 85.4247 0 10.116 -1.83739 -0.343398 21.3533 -0.582518 3.55271e-15 11.0615 0 0.310181 6.9826 -0.119857 -1.77636e-15 11.0615 -7.10543e-15 2.39093 4.13389 -2.12107 0 11.0615 0 7.51917 1.97851 -0.615651 -2.22045e-16 14.2219 1.42219 12.6401 -2.02942 -4.37682 0 4.28402 1.42109e-14 -0.402723 -12.821 2.28448 3.55271e-15 4.28402 -7.10543e-15 -0.373896 -18.1612 0.17653 2.22045e-16 10.1585 5.19711 104.846 -14.5021 3.81946 0 18.2966 1.42109e-14 40.8484 1.32073 28.5476 0 27.7295 -5.32907e-15 178.829 85.386 154.963 0 23.9679 3.55271e-15 -10.5729 -46.2234 -3.44789e-15 1.42109e-14 9.71257 0 1.19271e-15 0 -0 0 0 0 1.19271e-15 0 -0 2.22045e-16 10.1585 5.19711 -93.6033 -4.32012 -0.267916 1.42109e-14 18.2966 0 -35.6609 4.70108 -26.9229 1.42109e-14 27.7295 -2.66454e-15 0.26914 54.4958 1.95731 2.84217e-14 23.9679 0 26.7255 -32.9104 3.78853e-15 0 9.71257 0 2.78299e-15 0 3.18055e-15 0 0 0 2.78299e-15 0 3.18055e-15 -9.60676 0 1.77636e-15 6.26804 -13.2443 -3.37707 -1.77636e-15 -39.6157 -1.77636e-15 -1.08079e-15 34.201 1.92278e-15 1.77636e-15 -40.2599 0 -4.77344 -18.7891 -21.8494 3.55271e-15 -3.87518 0 2.98177e-16 4.96962e-17 1.59028e-15 0 0 15.1765 -1.05203e-17 11.2009 1.62116e-15 9.60676 0 1.77636e-15 8.6287 -24.3696 -15.8806 1.77636e-15 -39.6157 3.55271e-15 2.24447e-15 45.581 -5.68037e-16 -1.77636e-15 -40.2599 3.55271e-15 -10.4927 -19.8906 0.374845 -1.77636e-15 -3.87518 -1.77636e-15 9.81499e-16 -5.96354e-16 -0 0 8.88178e-16 15.1765 6.08136e-16 0.848933 -7.95226e-16 
0 0 0 90 -3.50835e-15 90 0 0 0 -0 -1.31542e-47 -0 14.5819 3.20432 83.7447 -161.268 83.1887 85.1307 0 10.116 -1.83739 -0.406947 21.1712 -0.607058 -1.77636e-15 11.0615 0 0.281403 6.73429 -0.100548 0 11.0615 7.10543e-15 1.88137 3.76494 -1.7053 0 11.0615 -1.42109e-14 6.69274 1.83229 -0.455743 0 14.2219 1.42219 11.6113 -1.73838 -4.42588 3.55271e-15 4.28402 0 -0.363276 -12.1015 1.72828 3.55271e-15 4.28402 7.10543e-15 -0.288864 -18.0864 0.147223 -8.88178e-16 10.1585 5.19711 103.89 -14.3733 3.51284 0 18.2966 -1.42109e-14 39.9508 2.36977 29.3183 1.42109e-14 27.7295 -4.44089e-15 180 89.9195 152.758 0 23.9679 3.55271e-15 -11.0628 -46.2221 3.4478e-15 1.42109e-14 9.71257 3.55271e-15 7.95139e-16 1.59028e-15 -0 0 0 0 7.95139e-16 1.59028e-15 -0 -8.88178e-16 10.1585 5.19711 -93.9441 -4.84695 -0.333781 1.42109e-14 18.2966 1.42109e-14 -38.4646 3.21667 -25.3454 0 27.7295 -1.77636e-15 7.58466e-08 60.5316 4.52912 2.84217e-14 23.9679 5.32907e-15 26.3899 -33.7499 -0 -1.42109e-14 9.71257 0 -1.19271e-15 -3.18055e-15 -0 0 0 0 -1.19271e-15 -3.18055e-15 -0 -9.60676 1.42109e-14 -1.77636e-15 4.63979 -12.884 -1.57353 3.55271e-15 -39.6157 -1.77636e-15 3.97569e-16 33.1426 -0 -1.77636e-15 -40.2599 -3.55271e-15 -4.03544 -18.0245 -22.1878 -3.55271e-15 -3.87518 1.77636e-15 4.41053e-16 -4.96962e-17 -3.18055e-15 0 4.44089e-16 15.1765 7.76837e-16 11.0631 -1.62039e-15 9.60676 0 1.77636e-15 6.88777 -23.113 -15.2926 0 -39.6157 0 -9.78308e-16 43.5812 4.45922e-16 0 -40.2599 3.55271e-15 -9.38943 -19.1384 1.61511 0 -3.87518 -1.77636e-15 -1.11816e-16 -1.98785e-16 7.95139e-16 0 0 15.1765 -9.97137e-17 0.918324 7.95241e-16 
0 0 0 90 -3.50835e-15 90 0 0 0 -0 -1.31542e-47 -0 14.709 1.97345 84.0982 -161.063 84.7618 83.567 8.88178e-16 10.116 -1.83739 -0.651749 21.0054 -0.57879 0 11.0615 -7.10543e-15 0.192385 6.51332 -0.0444109 1.77636e-15 11.0615 0 1.30923 3.36543 -0.953529 0 11.0615 1.42109e-14 5.70779 1.63964 -0.226551 -4.44089e-16 14.2219 1.42219 10.4884 -1.25799 -4.35677 0 4.28402 0 -0.321407 -11.4443 0.93346 -3.55271e-15 4.28402 0 -0.169235 -17.9899 0.104157 4.44089e-16 10.1585 5.19711 102.779 -14.0109 3.16284 -1.42109e-14 18.2966 0 38.9896 3.25295 30.3235 -1.42109e-14 27.7295 -1.33227e-15 -0.00363431 84.7828 -27.5354 0 23.9679 5.32907e-15 -11.9803 -46.1412 3.44274e-15 -1.42109e-14 9.71257 3.55271e-15 1.98785e-16 3.18055e-15 -1.59028e-15 0 0 0 1.98785e-16 3.18055e-15 -1.59028e-15 4.44089e-16 10.1585 5.19711 -94.2843 -5.72303 -0.416844 -2.84217e-14 18.2966 1.42109e-14 -41.3852 1.83779 -23.9259 -1.42109e-14 27.7295 -1.77636e-15 0.627555 66.442 5.95043 0 23.9679 0 25.7166 -34.6567 9.66647e-15 0 9.71257 -7.10543e-15 2.98177e-16 -7.95139e-16 -0 0 0 0 2.98177e-16 -7.95139e-16 -0 -9.60676 -1.42109e-14 -1.77636e-15 2.63317 -12.929 0.183038 0 -39.6157 1.77636e-15 -6.33125e-16 32.9482 1.89508e-15 0 -40.2599 -3.55271e-15 -3.27459 -17.5215 -22.3266 0 -3.87518 0 -8.69683e-16 3.97569e-16 -0 0 -4.44089e-16 15.1765 -8.82107e-16 10.8899 -0 9.60676 1.42109e-14 0 4.78951 -21.7877 -14.7154 -1.77636e-15 -39.6157 3.55271e-15 -2.14956e-15 41.6972 1.06491e-15 0 -40.2599 0 -8.259 -18.477 3.05866 -1.77636e-15 -3.87518 1.77636e-15 -9.19379e-16 -5.96354e-16 -0 1.77636e-15 8.88178e-16 15.1765 -8.48861e-17 0.970171 -1.59051e-15 
0 0 0 90 -3.50835e-15 90 0 0 0 -0 -1.31542e-47 -0 14.8757 0.724305 84.3579 -161.48 86.3085 82.3019 0 10.116 -1.83739 -0.896375 20.8396 -0.55059 0 11.0615 7.10543e-15 0.103803 6.29235 0.0116757 -8.88178e-16 11.0615 0 0.747606 2.96516 -0.202424 8.88178e-16 11.0615 7.10543e-15 4.64065 1.41964 0.0331503 8.88178e-16 14.2219 1.42219 9.36438 -0.77751 -4.28799 0 4.28402 -1.42109e-14 -0.260911 -10.7848 0.142458 3.55271e-15 4.28402 -7.10543e-15 -0.0494542 -17.8935 0.0611389 8.88178e-16 10.1585 5.19711 101.667 -13.6481 2.78928 0 18.2966 7.10543e-15 37.8613 3.96342 31.4901 1.42109e-14 27.7295 8.88178e-16 -3.22668e-06 79.4926 -27.6544 0 23.9679 5.32907e-15 -12.798 -45.9551 1.14372e-15 1.42109e-14 9.71257 3.55271e-15 1.98785e-16 0 -1.59028e-15 0 0 0 1.98785e-16 0 -1.59028e-15 8.88178e-16 10.1585 5.19711 -94.6309 -6.59904 -0.533332 0 18.2966 -7.10543e-15 -44.1604 0.536367 -22.7281 0 27.7295 3.55271e-15 1.27967e-06 72.3267 8.33734 0 23.9679 3.55271e-15 24.6627 -35.5546 3.90942e-15 -1.42109e-14 9.71257 0 -5.5287e-16 -1.11816e-16 -0 0 0 0 -5.5287e-16 -1.11816e-16 -0 -9.60676 0 0 0.64122 -13.2939 2.04902 -1.77636e-15 -39.6157 -1.77636e-15 -1.03192e-15 32.9794 1.89574e-15 0 -40.2599 -3.55271e-15 -2.43502 -17.1615 -22.2205 0 -3.87518 0 1.21756e-15 0 1.59028e-15 0 0 15.1765 -1.30178e-15 10.7319 4.85576e-15 9.60676 1.42109e-14 -3.55271e-15 2.76615 -20.691 -13.918 0 -39.6157 1.77636e-15 -8.66414e-16 40.0181 1.03826e-15 1.77636e-15 -40.2599 0 -7.17939 -17.9159 4.53149 0 -3.87518 -1.77636e-15 -1.98785e-16 5.96354e-16 1.59028e-15 0 8.88178e-16 15.1765 1.20836e-16 1.0178 1.59053e-15 
0 0 0 90 -3.50835e-15 90 0 0 0 -0 -1.31542e-47 -0 15.0493 -0.612123 84.4769 -159.388 88.0714 78.3012 -4.44089e-16 10.116 -1.83739 -1.34307 20.6482 -0.456306 4.44089e-16 11.0615 0 -0.04027 6.11452 0.0959554 0 11.0615 0 0.132446 2.60949 0.760063 0 11.0615 7.10543e-15 3.38937 1.16596 0.319936 8.88178e-16 14.2219 1.42219 8.46825 -0.156203 -3.99925 -3.55271e-15 4.28402 0 -0.244693 -10.3144 -0.599732 3.55271e-15 4.28402 7.10543e-15 0.0491161 -17.8066 0.0201393 8.88178e-16 10.1585 5.19711 100.512 -12.9757 2.39818 0 18.2966 0 36.6752 4.67681 32.4903 -1.42109e-14 27.7295 0 -0.00845812 73.5803 -28.0336 1.42109e-14 23.9679 0 -13.7871 -45.7074 1.13864e-15 0 9.71257 0 -7.95139e-16 7.95139e-16 -7.95139e-16 0 0 0 -7.95139e-16 7.95139e-16 -7.95139e-16 8.88178e-16 10.1585 5.19711 -95.1963 -7.86922 -0.689407 0 18.2966 -1.42109e-14 -46.7212 -0.738792 -21.7545 1.42109e-14 27.7295 0 0.592228 77.9962 8.65492 0 23.9679 3.55271e-15 23.6175 -36.3485 -0 0 9.71257 0 1.98785e-16 -3.97569e-16 -0 0 0 0 1.98785e-16 -3.97569e-16 -0 -9.60676 -1.42109e-14 0 -1.63933 -14.1926 3.85824 0 -39.6157 8.88178e-16 -5.2264e-16 33.8755 -1.91542e-15 1.77636e-15 -40.2599 7.10543e-15 -1.47985 -17.1468 -21.8322 3.55271e-15 -3.87518 0 -4.96962e-16 -3.97569e-16 4.77083e-15 -7.10543e-15 0 15.1765 -1.58869e-15 10.5645 1.6177e-15 9.60676 0 1.77636e-15 0.42794 -19.737 -13.1134 3.55271e-15 -39.6157 3.55271e-15 3.17254e-16 38.5893 -5.08637e-16 0 -40.2599 0 -6.10687 -17.496 6.1363 -1.77636e-15 -3.87518 -1.77636e-15 2.36057e-16 1.98785e-16 -0 0 8.88178e-16 15.1765 -1.34794e-16 1.0299 -7.95267e-16 
0 0 0 90 -3.50835e-15 90 0 0 0 -0 -1.31542e-47 -0 15.2235 -1.98427 84.4704 -90.3891 89.7287 7.17108 0 10.116 -1.83739 -1.7891 20.4568 -0.362264 4.44089e-16 11.0615 1.42109e-14 -0.183817 5.93669 0.18018 -1.11022e-16 11.0615 7.10543e-15 -0.470755 2.25324 1.72203 4.44089e-16 11.0615 -7.10543e-15 2.03628 0.915757 0.590981 8.88178e-16 14.2219 1.42219 7.56587 0.465545 -3.711 3.55271e-15 4.28402 -2.84217e-14 -0.216105 -9.84255 -1.33974 0 4.28402 -7.10543e-15 0.147817 -17.7198 -0.0208202 8.88178e-16 10.1585 5.19711 99.367 -12.3023 2.01298 0 18.2966 7.10543e-15 35.3029 5.26764 33.4245 1.42109e-14 27.7295 0 3.50393e-06 67.6987 -28.4453 -2.84217e-14 23.9679 -7.10543e-15 -14.6061 -45.3264 1.13096e-15 -2.84217e-14 9.71257 -3.55271e-15 -2.98177e-16 -3.97569e-16 7.95139e-16 0 0 0 -2.98177e-16 -3.97569e-16 7.95139e-16 8.88178e-16 10.1585 5.19711 -95.7805 -9.13908 -0.921178 2.84217e-14 18.2966 7.10543e-15 -48.7848 -1.97315 -21.0139 0 27.7295 -1.06581e-14 4.49732e-06 83.6663 9.68975 0 23.9679 -7.10543e-15 22.5161 -36.9788 -3.98138e-15 -1.42109e-14 9.71257 1.42109e-14 -1.78906e-15 -7.95139e-16 -0 0 0 0 -1.78906e-15 -7.95139e-16 -0 -9.60676 0 -1.77636e-15 -4.03301 -15.4203 5.54985 0 -39.6157 -1.77636e-15 -4.681e-16 35.2087 -1.94635e-15 0 -40.2599 0 -0.44818 -17.3647 -21.1052 -3.55271e-15 -3.87518 -1.77636e-15 4.96962e-17 1.98785e-16 -3.18055e-15 3.55271e-15 1.33227e-15 15.1765 4.15103e-16 10.3649 -1.61666e-15 9.60676 0 1.77636e-15 -1.99748 -18.986 -12.1202 1.77636e-15 -39.6157 3.55271e-15 1.19271e-15 37.4614 -0 0 -40.2599 -3.55271e-15 -5.04381 -17.2354 7.70759 0 -3.87518 0 -1.2424e-16 0 1.59028e-15 0 -8.88178e-16 15.1765 -1.75589e-16 1.0142 7.95263e-16 
